<svg width="25" height="28" viewBox="0 0 25 28" fill="none" xmlns="http://www.w3.org/2000/svg">
<path d="M19.3545 8.37012C20.6378 8.37012 21.8685 8.80294 22.7759 9.57337C23.6833 10.3438 24.1931 11.3887 24.1931 12.4783V23.4333C24.1931 24.5229 23.6833 25.5678 22.7759 26.3383C21.8685 27.1087 20.6378 27.5415 19.3545 27.5415H4.83862C3.55534 27.5415 2.32462 27.1087 1.4172 26.3383C0.509782 25.5678 0 24.5229 0 23.4333V12.4783C0 11.3887 0.509782 10.3438 1.4172 9.57337C2.32462 8.80294 3.55534 8.37012 4.83862 8.37012V6.31604C4.83862 4.68171 5.6033 3.11433 6.96442 1.95868C8.32555 0.803042 10.1716 0.153809 12.0966 0.153809C14.0215 0.153809 15.8676 0.803042 17.2287 1.95868C18.5898 3.11433 19.3545 4.68171 19.3545 6.31604V8.37012ZM4.83862 9.7395C3.9831 9.7395 3.16262 10.0281 2.55767 10.5417C1.95273 11.0553 1.61287 11.7519 1.61287 12.4783V23.4333C1.61287 24.1597 1.95273 24.8563 2.55767 25.37C3.16262 25.8836 3.9831 26.1721 4.83862 26.1721H19.3545C20.21 26.1721 21.0305 25.8836 21.6354 25.37C22.2404 24.8563 22.5802 24.1597 22.5802 23.4333V12.4783C22.5802 11.7519 22.2404 11.0553 21.6354 10.5417C21.0305 10.0281 20.21 9.7395 19.3545 9.7395H4.83862ZM17.7416 8.37012V6.31604C17.7416 5.0449 17.1469 3.82582 16.0882 2.92699C15.0296 2.02815 13.5937 1.52319 12.0966 1.52319C10.5994 1.52319 9.16355 2.02815 8.1049 2.92699C7.04624 3.82582 6.4515 5.0449 6.4515 6.31604V8.37012H17.7416ZM12.0966 16.5864C11.4549 16.5864 10.8396 16.8028 10.3858 17.1881C9.93214 17.5733 9.67725 18.0957 9.67725 18.6405C9.67725 19.1853 9.93214 19.7077 10.3858 20.093C10.8396 20.4782 11.4549 20.6946 12.0966 20.6946C12.7382 20.6946 13.3536 20.4782 13.8073 20.093C14.261 19.7077 14.5159 19.1853 14.5159 18.6405C14.5159 18.0957 14.261 17.5733 13.8073 17.1881C13.3536 16.8028 12.7382 16.5864 12.0966 16.5864ZM12.0966 15.217C13.166 15.217 14.1916 15.5777 14.9477 16.2197C15.7039 16.8618 16.1287 17.7325 16.1287 18.6405C16.1287 19.5485 15.7039 20.4192 14.9477 21.0613C14.1916 21.7033 13.166 22.064 12.0966 22.064C11.0272 22.064 10.0016 21.7033 9.24537 21.0613C8.48919 20.4192 8.06437 19.5485 8.06437 18.6405C8.06437 17.7325 8.48919 16.8618 9.24537 16.2197C10.0016 15.5777 11.0272 15.217 12.0966 15.217Z" fill="black" fill-opacity="0.45"/>
</svg>
