<svg width="32" height="27" viewBox="0 0 32 27" fill="none" xmlns="http://www.w3.org/2000/svg">
<path d="M15.7645 16.0616C24.4708 16.0616 31.5291 18.858 31.5291 22.3077C31.5291 24.7718 29.5316 26.7693 27.0675 26.7693H4.46154C1.9975 26.7693 0 24.7718 0 22.3077C0 18.858 7.05831 16.0616 15.7645 16.0616ZM29.4271 22.3077C29.4271 19.8449 23.3105 17.8462 15.7645 17.8462C8.21858 17.8462 2.10194 19.8449 2.10194 22.3077C2.10194 23.7861 3.30044 24.9846 4.77886 24.9846H26.7502C28.2286 24.9846 29.4271 23.7861 29.4271 22.3077ZM15.7645 0C17.7157 0 19.5869 0.658076 20.9666 1.82946C22.3462 3.00084 23.1213 4.58958 23.1213 6.24616C23.1213 7.90274 22.3462 9.49148 20.9666 10.6629C19.5869 11.8342 17.7157 12.4923 15.7645 12.4923C13.8134 12.4923 11.9422 11.8342 10.5625 10.6629C9.18284 9.49148 8.40776 7.90274 8.40776 6.24616C8.40776 4.58958 9.18284 3.00084 10.5625 1.82946C11.9422 0.658076 13.8134 0 15.7645 0ZM15.7645 1.78462C14.3709 1.78462 13.0343 2.25467 12.0488 3.09137C11.0633 3.92807 10.5097 5.06289 10.5097 6.24616C10.5097 7.42944 11.0633 8.56425 12.0488 9.40095C13.0343 10.2376 14.3709 10.7077 15.7645 10.7077C17.1582 10.7077 18.4948 10.2376 19.4803 9.40095C20.4658 8.56425 21.0194 7.42944 21.0194 6.24616C21.0194 5.06289 20.4658 3.92807 19.4803 3.09137C18.4948 2.25467 17.1582 1.78462 15.7645 1.78462Z" fill="black" fill-opacity="0.45"/>
</svg>
